<svg xmlns="http://www.w3.org/2000/svg" viewBox="1.6999975 7.85 97.25 84.75" y="0px" x="0px" version="1.1" style="max-height: 500px" width="97.25" height="84.75"><g transform="translate(0,-952.36218)"><path overflow="visible" display="inline" visibility="visible" stroke="none" fill-opacity="1" fill="#ffffff" style="text-indent:0;text-transform:none;direction:ltr;block-progression:tb;baseline-shift:baseline;color:#ffffff;enable-background:accumulate;" d="m 7.0003532,962.36219 c -1.6569,0 -3,1.34315 -3,3 0,1.65685 1.3431,3 3,3 l 11.9687998,0 c 4.9652,12.29749 9.8559,24.61749 14.7812,36.93751 l -4.5312,10.9062 c -0.3796,0.9093 -0.2728,2.0057 0.2751,2.8246 0.548,0.8189 1.5208,1.3358 2.5061,1.3317 l 50,0 c 1.5849,0.022 3.0427,-1.4149 3.0427,-3 0,-1.5851 -1.4578,-3.0224 -3.0427,-3 l -45.5,0 2.5938,-6.1875 48.1562,-3.8437 c 1.2605,-0.099 2.4015,-1.081 2.6875,-2.3125 l 6,-26.00007 c 0.3924,-1.75123 -1.1429,-3.6621 -2.9375,-3.65625 l -65.9688,0 -3.25,-8.125 c -0.445,-1.09982 -1.5948,-1.87497 -2.7812,-1.875 z m 22.4374998,16 59.7813,0 -4.6563,20.18749 -45.5937,3.62502 z m 12.5625,44.00001 c -5.4873,0 -10,4.5126 -10,10 0,5.4873 4.5127,10 10,10 5.4873,0 10,-4.5127 10,-10 0,-5.4873 -4.5127,-10 -10,-10 z m 30,0 c -5.4873,0 -10,4.5127 -10,10 0,5.4873 4.5127,10 10,10 5.4873,0 10,-4.5127 10,-10 0,-5.4874 -4.5127,-10 -10,-10 z m -30,6 c 2.2447,0 4,1.7553 4,4 0,2.2447 -1.7553,4 -4,4 -2.2445,0 -4,-1.7554 -4,-4 0,-2.2446 1.7555,-4 4,-4 z m 30,0 c 2.2445,0 4,1.7554 4,4 0,2.2446 -1.7555,4 -4,4 -2.2447,0 -4,-1.7553 -4,-4 0,-2.2447 1.7553,-4 4,-4 z"/></g><text font-family="'Helvetica Neue', Helvetica, Arial-Unicode, Arial, Sans-serif" font-weight="bold" font-size="5px" fill="#ffffff" y="115" x="0">Created by Alfa Design</text><text font-family="'Helvetica Neue', Helvetica, Arial-Unicode, Arial, Sans-serif" font-weight="bold" font-size="5px" fill="#ffffff" y="120" x="0">from the Noun Project</text></svg>