<svg xmlns:xlink="http://www.w3.org/1999/xlink" xmlns="http://www.w3.org/2000/svg" xml:space="preserve" style="max-height: 500px" viewBox="0 4.546875 105.75000000000001 93.75" y="0px" x="0px" version="1.1" width="105.75000000000001" height="93.75"><g><g><path d="M50,79.2c-27.6,0-50-11.7-50-26.1c0-6.5,4.5-12.7,12.8-17.5c0.6-0.3,1.4-0.1,1.7,0.5    c0.3,0.6,0.1,1.4-0.5,1.7C6.6,42,2.5,47.5,2.5,53.1c0,13,21.3,23.6,47.5,23.6c26.2,0,47.5-10.6,47.5-23.6c0-3.8-1.8-7.5-5.4-10.9    c-0.5-0.5-0.5-1.3,0-1.8c0.5-0.5,1.3-0.5,1.8,0c4.1,3.8,6.2,8.2,6.2,12.7C100,67.5,77.6,79.2,50,79.2z" fill="#ffffff"/></g><g><path d="M88.2,45.4c-0.7,0-1.2-0.6-1.2-1.2v-8.7h8.4c0.7,0,1.2,0.6,1.2,1.2s-0.6,1.2-1.2,1.2h-5.9v6.2    C89.5,44.8,88.9,45.4,88.2,45.4z" fill="#ffffff"/></g><g><path d="M50,37.9c-0.2,0-0.4-0.1-0.6-0.2L25.5,24c-0.4-0.2-0.6-0.6-0.6-1.1c0-0.4,0.2-0.9,0.6-1.1L49.4,8    c0.4-0.2,0.9-0.2,1.2,0l23.9,13.8c0.4,0.2,0.6,0.6,0.6,1.1c0,0.4-0.2,0.9-0.6,1.1L50.6,37.7C50.4,37.8,50.2,37.9,50,37.9z     M28.6,22.9L50,35.2l21.4-12.3L50,10.6L28.6,22.9z" fill="#ffffff"/></g><g><path d="M50,65.6L24.9,51.1V22.9c0-0.7,0.6-1.2,1.2-1.2c0.7,0,1.2,0.6,1.2,1.2v26.8L50,62.8l22.6-13.1V22.9    c0-0.7,0.6-1.2,1.2-1.2c0.7,0,1.2,0.6,1.2,1.2v28.3L50,65.6z" fill="#ffffff"/></g><g><path d="M50,53.6c-0.7,0-1.2-0.6-1.2-1.2V36.7c0-0.7,0.6-1.2,1.2-1.2c0.7,0,1.2,0.6,1.2,1.2v15.7    C51.2,53,50.7,53.6,50,53.6z" fill="#ffffff"/></g><g><path d="M35.8,91.6c-0.1,0-0.3,0-0.4-0.1c-0.7-0.2-1-0.9-0.8-1.6l2.2-6.8c0.2-0.7,0.9-1,1.6-0.8    c0.7,0.2,1,0.9,0.8,1.6L37,90.7C36.8,91.2,36.3,91.6,35.8,91.6z" fill="#ffffff"/></g><g><path d="M45.1,92.1c0,0-0.1,0-0.1,0c-0.7-0.1-1.2-0.7-1.1-1.4l0.8-6.6c0.1-0.7,0.7-1.2,1.4-1.1    c0.7,0.1,1.2,0.7,1.1,1.4L46.3,91C46.2,91.7,45.7,92.1,45.1,92.1z" fill="#ffffff"/></g><g><path d="M16.5,87.9c-0.3,0-0.6-0.1-0.8-0.3c-0.5-0.5-0.6-1.3-0.1-1.8l5.5-6.1c0.5-0.5,1.3-0.6,1.8-0.1    c0.5,0.5,0.6,1.3,0.1,1.8l-5.5,6.1C17.2,87.7,16.8,87.9,16.5,87.9z" fill="#ffffff"/></g><g><path d="M26.6,90.2c-0.2,0-0.4-0.1-0.6-0.2c-0.6-0.3-0.8-1.1-0.5-1.7l3.9-6.8c0.3-0.6,1.1-0.8,1.7-0.5    c0.6,0.3,0.8,1.1,0.5,1.7l-3.9,6.8C27.5,90,27.1,90.2,26.6,90.2z" fill="#ffffff"/></g><g><path d="M83.5,87.9c-0.3,0-0.7-0.1-0.9-0.4l-5.5-6.1c-0.5-0.5-0.4-1.3,0.1-1.8c0.5-0.5,1.3-0.4,1.8,0.1l5.5,6.1    c0.5,0.5,0.4,1.3-0.1,1.8C84.1,87.8,83.8,87.9,83.5,87.9z" fill="#ffffff"/></g><g><path d="M54.9,92.1c-0.6,0-1.2-0.5-1.2-1.1l-0.8-6.6c-0.1-0.7,0.4-1.3,1.1-1.4c0.7-0.1,1.3,0.4,1.4,1.1l0.8,6.6    c0.1,0.7-0.4,1.3-1.1,1.4C55,92.1,54.9,92.1,54.9,92.1z" fill="#ffffff"/></g><g><path d="M64.2,91.6c-0.5,0-1-0.3-1.2-0.9l-2.1-6.6c-0.2-0.7,0.1-1.4,0.8-1.6c0.7-0.2,1.4,0.1,1.6,0.8l2.1,6.6    c0.2,0.7-0.1,1.4-0.8,1.6C64.5,91.5,64.3,91.6,64.2,91.6z" fill="#ffffff"/></g><g><path d="M73.4,90.3c-0.4,0-0.9-0.2-1.1-0.6l-3.9-6.8c-0.3-0.6-0.1-1.4,0.5-1.7c0.6-0.3,1.4-0.1,1.7,0.5l3.9,6.8    c0.3,0.6,0.1,1.4-0.5,1.7C73.8,90.2,73.6,90.3,73.4,90.3z" fill="#ffffff"/></g></g><text font-family="'Helvetica Neue', Helvetica, Arial-Unicode, Arial, Sans-serif" font-weight="bold" font-size="5px" fill="#ffffff" y="115" x="0">Created by N.Style</text><text font-family="'Helvetica Neue', Helvetica, Arial-Unicode, Arial, Sans-serif" font-weight="bold" font-size="5px" fill="#ffffff" y="120" x="0">from the Noun Project</text></svg>