<svg xmlns="http://www.w3.org/2000/svg" viewBox="3.864864864864863 17.162 92.70270270270271 66.15" version="1.1" style="max-height: 500px" width="92.70270270270271" height="66.15">
 <path d="m40.773 33.703c-0.003907 0 0 0 0 0 2.9688 0 5.3789 2.4102 5.3789 5.3828 0 2.9688-2.4102 5.3789-5.3789 5.3789-2.9727 0-5.3828-2.4102-5.3828-5.3789 0-2.9727 2.4102-5.3828 5.3789-5.3828zm17.344 0.27734c0.33203 0 0.66797 0.085937 0.97266 0.26172 0.92969 0.53516 1.25 1.7266 0.71484 2.6562l-16.25 28.137c-0.35938 0.625-1.0117 0.97266-1.6836 0.97266-0.33203 0-0.66406-0.082031-0.96875-0.26172-0.92969-0.53516-1.25-1.7227-0.71484-2.6523l16.25-28.141c0.35938-0.62109 1.0078-0.97266 1.6797-0.97266zm1.1016 21.543c2.9727 0 5.3789 2.4102 5.3789 5.3828 0 2.9688-2.4062 5.3789-5.3789 5.3789s-5.3789-2.4102-5.3789-5.3789c0-2.9727 2.4062-5.3828 5.375-5.3828zm-47.781-35.418c-2.9297 0.03125-5.3125 2.4062-5.3125 5.3398-0.015625 14.316 0 16.078 0 16.078 0 1.0742 0.87109 1.9453 1.9453 1.9453 0.003907 0 0.82813 0.003906 0.82813 0.003906 3.6016 0 6.5234 2.918 6.5234 6.5234 0 3.6016-2.9219 6.5195-6.5234 6.5234h-0.82813c-1.0391 0-1.8867 0.8125-1.9414 1.8359l-0.003906 16.188c0.015625 2.9336 2.3828 5.3086 5.3125 5.3438h77.121c2.9297-0.035157 5.2969-2.4102 5.3125-5.3438v-16.078c0-1.0742-0.86719-1.9453-1.9414-1.9453h-0.83203c-3.6016-0.003906-6.5234-2.9219-6.5234-6.5234 0-3.6055 2.9219-6.5195 6.5234-6.5234l0.83203-0.003906c1.0742 0 1.9414-0.87109 1.9414-1.9453v-16.078c-0.015625-2.9336-2.3789-5.3086-5.3086-5.3438z" fill="#ffffff"/>
<text fill="#ffffff" font-family="Arbeit Regular, Helvetica, Arial-Unicode, Arial, Sans-serif" font-weight="bold" font-size="5.0" y="117.5" x="0.0">Created by Desi Ratna</text><text fill="#ffffff" font-family="Arbeit Regular, Helvetica, Arial-Unicode, Arial, Sans-serif" font-weight="bold" font-size="5.0" y="122.5" x="0.0">from Noun Project</text></svg>