<svg xmlns="http://www.w3.org/2000/svg" viewBox="0 0 64 80" x="0px" y="0px"><title>next, forward, more, arrow</title><g><path d="M32,9.79A22.21,22.21,0,1,0,54.21,32,22.2308,22.2308,0,0,0,32,9.79ZM26.62,40.8a1.4778,1.4778,0,0,1-1.13.51,1.4625,1.4625,0,0,1-.98-.37,1.5031,1.5031,0,0,1-.15-2.12L30.31,32l-5.95-6.82a1.5023,1.5023,0,0,1,2.26-1.98l6.81,7.81a.2181.2181,0,0,1,.04.05,1.4629,1.4629,0,0,1,.09.13,1.0076,1.0076,0,0,1,.12.23.8083.8083,0,0,1,.07.22,1.26,1.26,0,0,1,0,.72.8083.8083,0,0,1-.07.22,1.0076,1.0076,0,0,1-.12.23,1.4629,1.4629,0,0,1-.09.13c-.01.02-.03.03-.04.05Zm15.34-8.44a.8083.8083,0,0,1-.07.22.201.201,0,0,1-.04.08.79.79,0,0,1-.14.23.3592.3592,0,0,1-.07.1l-.03.03L34.83,40.8a1.5023,1.5023,0,0,1-2.26-1.98L38.52,32l-5.95-6.82a1.5023,1.5023,0,1,1,2.26-1.98l6.78,7.78a.642.642,0,0,1,.1.13.79.79,0,0,1,.14.23.2994.2994,0,0,1,.04.08.8083.8083,0,0,1,.07.22A1.4623,1.4623,0,0,1,41.96,32.36Z"/></g><text x="0" y="79" fill="#000000" font-size="5px" font-weight="bold" font-family="'Helvetica Neue', Helvetica, Arial-Unicode, Arial, Sans-serif">Created by The Icon Z</text><text x="0" y="84" fill="#000000" font-size="5px" font-weight="bold" font-family="'Helvetica Neue', Helvetica, Arial-Unicode, Arial, Sans-serif">from the Noun Project</text></svg>