<svg xmlns="http://www.w3.org/2000/svg" xmlns:xlink="http://www.w3.org/1999/xlink" version="1.1" x="0px" y="0px" viewBox="0 0 600 750" style="enable-background:new 0 0 600 600;" xml:space="preserve"><g><g><g><path d="M60,545c-1.28,0-2.559-0.488-3.536-1.465c-1.953-1.952-1.953-5.118,0-7.07l480-480c1.951-1.952,5.119-1.952,7.07,0     c1.953,1.953,1.953,5.119,0,7.071l-480,480C62.559,544.512,61.28,545,60,545z"/></g><g><path d="M540,545c-1.279,0-2.56-0.488-3.535-1.465l-480-480c-1.953-1.953-1.953-5.119,0-7.071c1.953-1.952,5.118-1.952,7.071,0     l480,480c1.953,1.952,1.953,5.118,0,7.07C542.56,544.512,541.279,545,540,545z"/></g><g><path d="M540,545H60c-2.761,0-5-2.238-5-5V60c0-2.761,2.239-5,5-5h480c2.762,0,5,2.239,5,5v480C545,542.762,542.762,545,540,545z      M65,535h470V65H65V535z"/></g></g></g><text x="0" y="615" fill="#000000" font-size="5px" font-weight="bold" font-family="'Helvetica Neue', Helvetica, Arial-Unicode, Arial, Sans-serif">Created by ibrandify</text><text x="0" y="620" fill="#000000" font-size="5px" font-weight="bold" font-family="'Helvetica Neue', Helvetica, Arial-Unicode, Arial, Sans-serif">from the Noun Project</text></svg>