<svg xmlns="http://www.w3.org/2000/svg" xmlns:xlink="http://www.w3.org/1999/xlink" version="1.1" x="0px" y="0px" viewBox="0 0 100 125" style="enable-background:new 0 0 100 100;" xml:space="preserve"><path d="M43.7,48.53h-23c-2.48,0-4.5-2.02-4.5-4.5v-23c0-2.48,2.02-4.5,4.5-4.5h23c2.48,0,4.5,2.02,4.5,4.5v23  C48.2,46.51,46.18,48.53,43.7,48.53z M20.7,18.53c-1.38,0-2.5,1.12-2.5,2.5v23c0,1.38,1.12,2.5,2.5,2.5h23c1.38,0,2.5-1.12,2.5-2.5  v-23c0-1.38-1.12-2.5-2.5-2.5H20.7z"/><path d="M43.7,82.98h-23c-2.48,0-4.5-2.02-4.5-4.5v-23c0-2.48,2.02-4.5,4.5-4.5h23c2.48,0,4.5,2.02,4.5,4.5v23  C48.2,80.97,46.18,82.98,43.7,82.98z M20.7,52.98c-1.38,0-2.5,1.12-2.5,2.5v23c0,1.38,1.12,2.5,2.5,2.5h23c1.38,0,2.5-1.12,2.5-2.5  v-23c0-1.38-1.12-2.5-2.5-2.5H20.7z"/><path d="M79.3,48.53h-23c-2.48,0-4.5-2.02-4.5-4.5v-23c0-2.48,2.02-4.5,4.5-4.5h23c2.48,0,4.5,2.02,4.5,4.5v23  C83.8,46.51,81.78,48.53,79.3,48.53z M56.3,18.53c-1.38,0-2.5,1.12-2.5,2.5v23c0,1.38,1.12,2.5,2.5,2.5h23c1.38,0,2.5-1.12,2.5-2.5  v-23c0-1.38-1.12-2.5-2.5-2.5H56.3z"/><path d="M83.51,81.77l-8.21-8.29c2.15-2.38,3.45-5.54,3.45-9c0-7.44-6.05-13.5-13.5-13.5c-7.44,0-13.5,6.06-13.5,13.5  c0,7.45,6.06,13.5,13.5,13.5c3.27,0,6.28-1.17,8.61-3.12l8.23,8.32c0.2,0.19,0.45,0.29,0.71,0.29s0.51-0.09,0.71-0.29  C83.9,82.79,83.9,82.16,83.51,81.77z M53.75,64.48c0-6.34,5.16-11.5,11.5-11.5c6.34,0,11.5,5.16,11.5,11.5  c0,6.34-5.16,11.5-11.5,11.5C58.91,75.98,53.75,70.82,53.75,64.48z"/><text x="0" y="115" fill="#000000" font-size="5px" font-weight="bold" font-family="'Helvetica Neue', Helvetica, Arial-Unicode, Arial, Sans-serif">Created by Paola Moreira</text><text x="0" y="120" fill="#000000" font-size="5px" font-weight="bold" font-family="'Helvetica Neue', Helvetica, Arial-Unicode, Arial, Sans-serif">from the Noun Project</text></svg>